<mxfile host="app.diagrams.net" modified="2024-06-07T11:21:22.211Z" agent="Mozilla/5.0 (Windows NT 10.0; Win64; x64) AppleWebKit/537.36 (KHTML, like Gecko) Chrome/101.0.0.0 Safari/537.36" etag="Qv1CQ2Wxdz8fX2JGFnFV" version="24.5.1" type="github">
  <diagram name="Page-1" id="822b0af5-4adb-64df-f703-e8dfc1f81529">
    <mxGraphModel dx="1434" dy="739" grid="1" gridSize="10" guides="1" tooltips="1" connect="1" arrows="1" fold="1" page="1" pageScale="1" pageWidth="1100" pageHeight="850" background="none" math="0" shadow="0">
      <root>
        <mxCell id="0" />
        <mxCell id="1" parent="0" />
        <mxCell id="Tdezvj7CF3Q8PXcbZIpg-2" value="" style="sketch=0;outlineConnect=0;fontColor=#232F3E;gradientColor=none;fillColor=#DD344C;strokeColor=none;dashed=0;verticalLabelPosition=bottom;verticalAlign=top;align=center;html=1;fontSize=12;fontStyle=0;aspect=fixed;shape=mxgraph.aws4.location_service_place;" parent="1" vertex="1">
          <mxGeometry x="100" y="55.95" width="40" height="51.89" as="geometry" />
        </mxCell>
        <mxCell id="Tdezvj7CF3Q8PXcbZIpg-3" value="Devices" style="text;html=1;align=center;verticalAlign=middle;whiteSpace=wrap;rounded=0;" parent="1" vertex="1">
          <mxGeometry x="90" y="120" width="60" height="30" as="geometry" />
        </mxCell>
        <mxCell id="Tdezvj7CF3Q8PXcbZIpg-4" value="" style="endArrow=classic;html=1;rounded=0;entryX=0;entryY=0.5;entryDx=0;entryDy=0;" parent="1" source="Tdezvj7CF3Q8PXcbZIpg-2" target="Tdezvj7CF3Q8PXcbZIpg-5" edge="1">
          <mxGeometry width="50" height="50" relative="1" as="geometry">
            <mxPoint x="160" y="80" as="sourcePoint" />
            <mxPoint x="280" y="80" as="targetPoint" />
          </mxGeometry>
        </mxCell>
        <mxCell id="Tdezvj7CF3Q8PXcbZIpg-5" value="Load Balancer" style="rounded=1;whiteSpace=wrap;html=1;fillColor=#dae8fc;strokeColor=#6c8ebf;" parent="1" vertex="1">
          <mxGeometry x="290" y="51.900000000000006" width="120" height="60" as="geometry" />
        </mxCell>
        <mxCell id="Tdezvj7CF3Q8PXcbZIpg-6" value="" style="rounded=1;whiteSpace=wrap;html=1;fillColor=#fff2cc;strokeColor=#d6b656;" parent="1" vertex="1">
          <mxGeometry x="530" y="20" width="490" height="140" as="geometry" />
        </mxCell>
        <mxCell id="Tdezvj7CF3Q8PXcbZIpg-7" value="" style="endArrow=classic;html=1;rounded=0;exitX=1;exitY=0.5;exitDx=0;exitDy=0;entryX=0.002;entryY=0.443;entryDx=0;entryDy=0;entryPerimeter=0;" parent="1" source="Tdezvj7CF3Q8PXcbZIpg-5" target="Tdezvj7CF3Q8PXcbZIpg-6" edge="1">
          <mxGeometry width="50" height="50" relative="1" as="geometry">
            <mxPoint x="430" y="80" as="sourcePoint" />
            <mxPoint x="520" y="80" as="targetPoint" />
          </mxGeometry>
        </mxCell>
        <mxCell id="Tdezvj7CF3Q8PXcbZIpg-8" value="VerneMQ" style="rounded=1;whiteSpace=wrap;html=1;" parent="1" vertex="1">
          <mxGeometry x="620" y="65" width="100" height="50" as="geometry" />
        </mxCell>
        <mxCell id="Tdezvj7CF3Q8PXcbZIpg-9" value="VerneMQ" style="rounded=1;whiteSpace=wrap;html=1;" parent="1" vertex="1">
          <mxGeometry x="860" y="65" width="100" height="50" as="geometry" />
        </mxCell>
        <mxCell id="Tdezvj7CF3Q8PXcbZIpg-11" value="&lt;span style=&quot;font-size: 18px;&quot;&gt;&lt;b&gt;Broker&lt;/b&gt;&lt;/span&gt;" style="text;html=1;align=center;verticalAlign=middle;whiteSpace=wrap;rounded=0;" parent="1" vertex="1">
          <mxGeometry x="710" y="25.95" width="130" height="30" as="geometry" />
        </mxCell>
        <mxCell id="Tdezvj7CF3Q8PXcbZIpg-13" value="" style="rounded=1;whiteSpace=wrap;html=1;fillColor=#fff2cc;strokeColor=#d6b656;" parent="1" vertex="1">
          <mxGeometry x="530" y="210" width="520" height="630" as="geometry" />
        </mxCell>
        <mxCell id="Tdezvj7CF3Q8PXcbZIpg-14" value="&lt;font style=&quot;font-size: 18px;&quot;&gt;&lt;b&gt;IOT Platform&lt;/b&gt;&lt;/font&gt;" style="text;html=1;align=center;verticalAlign=middle;whiteSpace=wrap;rounded=0;" parent="1" vertex="1">
          <mxGeometry x="720" y="230" width="130" height="30" as="geometry" />
        </mxCell>
        <mxCell id="Tdezvj7CF3Q8PXcbZIpg-15" value="" style="rounded=1;whiteSpace=wrap;html=1;fillColor=#d5e8d4;strokeColor=#82b366;" parent="1" vertex="1">
          <mxGeometry x="560" y="310" width="130" height="290" as="geometry" />
        </mxCell>
        <mxCell id="Tdezvj7CF3Q8PXcbZIpg-16" value="Flow Engine" style="text;html=1;align=center;verticalAlign=middle;whiteSpace=wrap;rounded=0;" parent="1" vertex="1">
          <mxGeometry x="590" y="330" width="70" height="30" as="geometry" />
        </mxCell>
        <mxCell id="Tdezvj7CF3Q8PXcbZIpg-17" value="Transport" style="rounded=1;whiteSpace=wrap;html=1;" parent="1" vertex="1">
          <mxGeometry x="570" y="380" width="110" height="40" as="geometry" />
        </mxCell>
        <mxCell id="Tdezvj7CF3Q8PXcbZIpg-18" value="Rule-engine" style="rounded=1;whiteSpace=wrap;html=1;" parent="1" vertex="1">
          <mxGeometry x="570" y="430" width="110" height="40" as="geometry" />
        </mxCell>
        <mxCell id="Tdezvj7CF3Q8PXcbZIpg-19" value="Export API" style="rounded=1;whiteSpace=wrap;html=1;" parent="1" vertex="1">
          <mxGeometry x="570" y="480" width="110" height="40" as="geometry" />
        </mxCell>
        <mxCell id="Tdezvj7CF3Q8PXcbZIpg-20" value="JS-Executor" style="rounded=1;whiteSpace=wrap;html=1;" parent="1" vertex="1">
          <mxGeometry x="570" y="530" width="110" height="40" as="geometry" />
        </mxCell>
        <mxCell id="Tdezvj7CF3Q8PXcbZIpg-22" value="" style="rounded=1;whiteSpace=wrap;html=1;fillColor=#d5e8d4;strokeColor=#82b366;" parent="1" vertex="1">
          <mxGeometry x="730" y="310" width="130" height="290" as="geometry" />
        </mxCell>
        <mxCell id="Tdezvj7CF3Q8PXcbZIpg-23" value="Message Queue" style="text;html=1;align=center;verticalAlign=middle;whiteSpace=wrap;rounded=0;" parent="1" vertex="1">
          <mxGeometry x="760" y="330" width="70" height="30" as="geometry" />
        </mxCell>
        <mxCell id="Tdezvj7CF3Q8PXcbZIpg-36" value="" style="rounded=1;whiteSpace=wrap;html=1;fillColor=#d5e8d4;strokeColor=#82b366;" parent="1" vertex="1">
          <mxGeometry x="890" y="310" width="130" height="490" as="geometry" />
        </mxCell>
        <mxCell id="Tdezvj7CF3Q8PXcbZIpg-37" value="Adapter" style="rounded=1;whiteSpace=wrap;html=1;" parent="1" vertex="1">
          <mxGeometry x="900" y="340" width="110" height="40" as="geometry" />
        </mxCell>
        <mxCell id="Tdezvj7CF3Q8PXcbZIpg-38" value="Attribtutes" style="rounded=1;whiteSpace=wrap;html=1;" parent="1" vertex="1">
          <mxGeometry x="900" y="397.5" width="110" height="40" as="geometry" />
        </mxCell>
        <mxCell id="Tdezvj7CF3Q8PXcbZIpg-39" value="Devices" style="rounded=1;whiteSpace=wrap;html=1;" parent="1" vertex="1">
          <mxGeometry x="900" y="455" width="110" height="40" as="geometry" />
        </mxCell>
        <mxCell id="Tdezvj7CF3Q8PXcbZIpg-40" value="Event" style="rounded=1;whiteSpace=wrap;html=1;" parent="1" vertex="1">
          <mxGeometry x="900" y="510.49" width="110" height="40" as="geometry" />
        </mxCell>
        <mxCell id="Tdezvj7CF3Q8PXcbZIpg-41" value="Fota" style="rounded=1;whiteSpace=wrap;html=1;" parent="1" vertex="1">
          <mxGeometry x="900" y="570" width="110" height="40" as="geometry" />
        </mxCell>
        <mxCell id="Tdezvj7CF3Q8PXcbZIpg-42" value="User" style="rounded=1;whiteSpace=wrap;html=1;" parent="1" vertex="1">
          <mxGeometry x="900" y="630" width="110" height="40" as="geometry" />
        </mxCell>
        <mxCell id="Tdezvj7CF3Q8PXcbZIpg-43" value="Organization" style="rounded=1;whiteSpace=wrap;html=1;" parent="1" vertex="1">
          <mxGeometry x="900" y="690" width="110" height="40" as="geometry" />
        </mxCell>
        <mxCell id="Tdezvj7CF3Q8PXcbZIpg-44" value="Các service liên quan" style="rounded=1;whiteSpace=wrap;html=1;" parent="1" vertex="1">
          <mxGeometry x="900" y="750" width="110" height="40" as="geometry" />
        </mxCell>
        <mxCell id="Tdezvj7CF3Q8PXcbZIpg-45" value="Core" style="text;html=1;align=center;verticalAlign=middle;whiteSpace=wrap;rounded=0;" parent="1" vertex="1">
          <mxGeometry x="920" y="310" width="70" height="30" as="geometry" />
        </mxCell>
        <mxCell id="Tdezvj7CF3Q8PXcbZIpg-46" value="" style="endArrow=classic;html=1;rounded=0;exitX=0.265;exitY=1.007;exitDx=0;exitDy=0;exitPerimeter=0;entryX=0.25;entryY=0;entryDx=0;entryDy=0;" parent="1" source="Tdezvj7CF3Q8PXcbZIpg-6" target="Tdezvj7CF3Q8PXcbZIpg-13" edge="1">
          <mxGeometry width="50" height="50" relative="1" as="geometry">
            <mxPoint x="520" y="240" as="sourcePoint" />
            <mxPoint x="570" y="190" as="targetPoint" />
          </mxGeometry>
        </mxCell>
        <mxCell id="Tdezvj7CF3Q8PXcbZIpg-47" value="" style="endArrow=classic;html=1;rounded=0;exitX=0.75;exitY=1;exitDx=0;exitDy=0;entryX=0.708;entryY=0.003;entryDx=0;entryDy=0;entryPerimeter=0;" parent="1" source="Tdezvj7CF3Q8PXcbZIpg-6" target="Tdezvj7CF3Q8PXcbZIpg-13" edge="1">
          <mxGeometry width="50" height="50" relative="1" as="geometry">
            <mxPoint x="670" y="171" as="sourcePoint" />
            <mxPoint x="670" y="220" as="targetPoint" />
          </mxGeometry>
        </mxCell>
        <mxCell id="Tdezvj7CF3Q8PXcbZIpg-48" value="" style="html=1;verticalLabelPosition=bottom;align=center;labelBackgroundColor=#ffffff;verticalAlign=top;strokeWidth=2;strokeColor=#0080F0;shadow=0;dashed=0;shape=mxgraph.ios7.icons.smartphone;" parent="1" vertex="1">
          <mxGeometry x="110" y="430" width="30" height="50" as="geometry" />
        </mxCell>
        <mxCell id="Tdezvj7CF3Q8PXcbZIpg-49" value="Mobile App" style="text;html=1;align=center;verticalAlign=middle;whiteSpace=wrap;rounded=0;" parent="1" vertex="1">
          <mxGeometry x="95" y="480.49" width="60" height="30" as="geometry" />
        </mxCell>
        <mxCell id="Tdezvj7CF3Q8PXcbZIpg-50" value="" style="rounded=1;whiteSpace=wrap;html=1;fillColor=#d5e8d4;strokeColor=#82b366;" parent="1" vertex="1">
          <mxGeometry x="570" y="650.49" width="130" height="139.51" as="geometry" />
        </mxCell>
        <mxCell id="Tdezvj7CF3Q8PXcbZIpg-51" value="PostgreSQL" style="rounded=1;whiteSpace=wrap;html=1;" parent="1" vertex="1">
          <mxGeometry x="580" y="680" width="110" height="40" as="geometry" />
        </mxCell>
        <mxCell id="Tdezvj7CF3Q8PXcbZIpg-52" value="MongoDB" style="rounded=1;whiteSpace=wrap;html=1;" parent="1" vertex="1">
          <mxGeometry x="580" y="730" width="110" height="40" as="geometry" />
        </mxCell>
        <mxCell id="Tdezvj7CF3Q8PXcbZIpg-53" value="" style="rounded=1;whiteSpace=wrap;html=1;fillColor=#d5e8d4;strokeColor=#82b366;" parent="1" vertex="1">
          <mxGeometry x="730" y="650.49" width="130" height="139.51" as="geometry" />
        </mxCell>
        <mxCell id="Tdezvj7CF3Q8PXcbZIpg-54" value="Redis" style="rounded=1;whiteSpace=wrap;html=1;" parent="1" vertex="1">
          <mxGeometry x="740" y="700.24" width="110" height="40" as="geometry" />
        </mxCell>
        <mxCell id="Tdezvj7CF3Q8PXcbZIpg-55" value="Database" style="text;html=1;align=center;verticalAlign=middle;whiteSpace=wrap;rounded=0;" parent="1" vertex="1">
          <mxGeometry x="605" y="650" width="60" height="30" as="geometry" />
        </mxCell>
        <mxCell id="Tdezvj7CF3Q8PXcbZIpg-56" value="Caching" style="text;html=1;align=center;verticalAlign=middle;whiteSpace=wrap;rounded=0;" parent="1" vertex="1">
          <mxGeometry x="764.99" y="650.49" width="60" height="30" as="geometry" />
        </mxCell>
        <mxCell id="Tdezvj7CF3Q8PXcbZIpg-57" value="" style="endArrow=classic;html=1;rounded=0;exitX=1;exitY=0.25;exitDx=0;exitDy=0;entryX=0;entryY=0.25;entryDx=0;entryDy=0;" parent="1" source="Tdezvj7CF3Q8PXcbZIpg-15" target="Tdezvj7CF3Q8PXcbZIpg-22" edge="1">
          <mxGeometry width="50" height="50" relative="1" as="geometry">
            <mxPoint x="520" y="540" as="sourcePoint" />
            <mxPoint x="570" y="490" as="targetPoint" />
          </mxGeometry>
        </mxCell>
        <mxCell id="Tdezvj7CF3Q8PXcbZIpg-58" value="" style="endArrow=classic;html=1;rounded=0;exitX=1;exitY=0.25;exitDx=0;exitDy=0;entryX=0.023;entryY=0.148;entryDx=0;entryDy=0;entryPerimeter=0;" parent="1" source="Tdezvj7CF3Q8PXcbZIpg-22" target="Tdezvj7CF3Q8PXcbZIpg-36" edge="1">
          <mxGeometry width="50" height="50" relative="1" as="geometry">
            <mxPoint x="700" y="393" as="sourcePoint" />
            <mxPoint x="740" y="393" as="targetPoint" />
          </mxGeometry>
        </mxCell>
        <mxCell id="Tdezvj7CF3Q8PXcbZIpg-59" value="" style="endArrow=classic;html=1;rounded=0;exitX=0.008;exitY=0.467;exitDx=0;exitDy=0;entryX=1;entryY=0.79;entryDx=0;entryDy=0;entryPerimeter=0;exitPerimeter=0;" parent="1" source="Tdezvj7CF3Q8PXcbZIpg-36" target="Tdezvj7CF3Q8PXcbZIpg-22" edge="1">
          <mxGeometry width="50" height="50" relative="1" as="geometry">
            <mxPoint x="870" y="393" as="sourcePoint" />
            <mxPoint x="903" y="393" as="targetPoint" />
          </mxGeometry>
        </mxCell>
        <mxCell id="Tdezvj7CF3Q8PXcbZIpg-60" value="" style="endArrow=classic;html=1;rounded=0;exitX=0;exitY=0.75;exitDx=0;exitDy=0;entryX=1;entryY=0.75;entryDx=0;entryDy=0;" parent="1" source="Tdezvj7CF3Q8PXcbZIpg-22" target="Tdezvj7CF3Q8PXcbZIpg-15" edge="1">
          <mxGeometry width="50" height="50" relative="1" as="geometry">
            <mxPoint x="901" y="549" as="sourcePoint" />
            <mxPoint x="870" y="549" as="targetPoint" />
          </mxGeometry>
        </mxCell>
        <mxCell id="Tdezvj7CF3Q8PXcbZIpg-61" value="" style="endArrow=classic;html=1;rounded=0;exitX=-0.015;exitY=0.637;exitDx=0;exitDy=0;exitPerimeter=0;entryX=0.5;entryY=0;entryDx=0;entryDy=0;" parent="1" source="Tdezvj7CF3Q8PXcbZIpg-36" target="Tdezvj7CF3Q8PXcbZIpg-55" edge="1">
          <mxGeometry width="50" height="50" relative="1" as="geometry">
            <mxPoint x="520" y="540" as="sourcePoint" />
            <mxPoint x="570" y="490" as="targetPoint" />
            <Array as="points">
              <mxPoint x="635" y="620" />
            </Array>
          </mxGeometry>
        </mxCell>
        <mxCell id="Tdezvj7CF3Q8PXcbZIpg-62" value="" style="endArrow=classic;html=1;rounded=0;exitX=0.023;exitY=0.839;exitDx=0;exitDy=0;entryX=1;entryY=0.5;entryDx=0;entryDy=0;exitPerimeter=0;" parent="1" source="Tdezvj7CF3Q8PXcbZIpg-36" target="Tdezvj7CF3Q8PXcbZIpg-53" edge="1">
          <mxGeometry width="50" height="50" relative="1" as="geometry">
            <mxPoint x="740" y="538" as="sourcePoint" />
            <mxPoint x="700" y="538" as="targetPoint" />
          </mxGeometry>
        </mxCell>
        <mxCell id="Tdezvj7CF3Q8PXcbZIpg-63" value="WAF" style="rounded=1;whiteSpace=wrap;html=1;fillColor=#dae8fc;strokeColor=#6c8ebf;" parent="1" vertex="1">
          <mxGeometry x="280" y="420" width="120" height="60" as="geometry" />
        </mxCell>
        <mxCell id="Tdezvj7CF3Q8PXcbZIpg-64" value="" style="endArrow=classic;html=1;rounded=0;exitX=1.067;exitY=0.44;exitDx=0;exitDy=0;exitPerimeter=0;entryX=0;entryY=0.5;entryDx=0;entryDy=0;" parent="1" source="Tdezvj7CF3Q8PXcbZIpg-48" target="Tdezvj7CF3Q8PXcbZIpg-63" edge="1">
          <mxGeometry width="50" height="50" relative="1" as="geometry">
            <mxPoint x="520" y="240" as="sourcePoint" />
            <mxPoint x="570" y="190" as="targetPoint" />
          </mxGeometry>
        </mxCell>
        <mxCell id="Tdezvj7CF3Q8PXcbZIpg-65" value="" style="endArrow=classic;html=1;rounded=0;exitX=1;exitY=0.5;exitDx=0;exitDy=0;entryX=-0.002;entryY=0.381;entryDx=0;entryDy=0;entryPerimeter=0;" parent="1" source="Tdezvj7CF3Q8PXcbZIpg-63" target="Tdezvj7CF3Q8PXcbZIpg-13" edge="1">
          <mxGeometry width="50" height="50" relative="1" as="geometry">
            <mxPoint x="520" y="540" as="sourcePoint" />
            <mxPoint x="570" y="490" as="targetPoint" />
          </mxGeometry>
        </mxCell>
        <mxCell id="LphvxAgCqrytLt34ni2W-1" value="Apache Zookeeper" style="rounded=1;whiteSpace=wrap;html=1;" vertex="1" parent="1">
          <mxGeometry x="740" y="405" width="110" height="40.49" as="geometry" />
        </mxCell>
        <mxCell id="LphvxAgCqrytLt34ni2W-2" value="Apache Kafka" style="rounded=1;whiteSpace=wrap;html=1;" vertex="1" parent="1">
          <mxGeometry x="740" y="480.49" width="110" height="40.49" as="geometry" />
        </mxCell>
      </root>
    </mxGraphModel>
  </diagram>
</mxfile>
